<svg xmlns="http://www.w3.org/2000/svg" width="24" height="24" fill="none" viewBox="0 0 24 24">
  <g class="store">
    <path fill="#FFD102" d="M18 10a2 2 0 01-2-2 1 1 0 00-2 0 2 2 0 11-4 0 1 1 0 00-2 0 2.001 2.001 0 01-4 .15L5.68 4h12.64L20 8.15A2 2 0 0118 10z" class="yellow"/>
    <path fill="#091C2C" d="M22 8c-.805-2.487-2-5.37-2-5.37A1 1 0 0019 2H5a1 1 0 00-.93.63S2.993 5.27 2 8c.088.791.201 1.367.552 1.963A4 4 0 004 11.4V21a1 1 0 001 1h14a1 1 0 001-1v-9.56a4 4 0 001.458-1.454c.35-.604.457-1.187.542-1.986zm-9 12h-2v-4h2v4zm5 0h-3v-5a1 1 0 00-1-1h-4a1 1 0 00-1 1v5H6v-8a4 4 0 003-1.38 4 4 0 006 0A4 4 0 0018 12v8zm0-10a2 2 0 01-2-2 1 1 0 00-2 0 2 2 0 11-4 0 1 1 0 10-2 0 2.001 2.001 0 11-4 .15L5.68 4h12.64L20 8.15A2 2 0 0118 10z" class="contur"/>
  </g>
</svg>
