<svg xmlns="http://www.w3.org/2000/svg" width="24" height="24" fill="none" viewBox="0 0 24 24">
  <g class="plane-departure">
    <path fill="#FFD102" d="M7.5 5.5L6.238 6.652S11.274 8.274 13.5 10.5s3.871 7.121 3.871 7.121L18.5 16.5s-.053-5.553-2.5-8-8.5-3-8.5-3z" class="yellow"/>
    <path fill="#091C2C" d="M22 5.08a3.08 3.08 0 00-5.26-2.18l-2.81 2.81-6.49-2.16a1 1 0 00-1 .24L4.06 6.15a1 1 0 00.29 1.61l5.18 2.35-2.6 2.6-1.71-.86a1 1 0 00-1.16.15l-1.77 1.81a1 1 0 000 1.41l6.49 6.49a1 1 0 001.41 0L12 19.94a1 1 0 00.19-1.16l-.86-1.71 2.6-2.6 2.35 5.18a1 1 0 001.61.29l2.36-2.36a1 1 0 00.24-1l-2.16-6.49 2.77-2.83a3.05 3.05 0 00.9-2.18zm-2.32.77l-3.24 3.24a.999.999 0 00-.24 1l2.16 6.48-.9.9-2.35-5.17a1 1 0 00-1.62-.29l-4.12 4.16a1 1 0 00-.19 1.15L10 19l-.56.56-5.03-5.04L5 14l1.71.86a1 1 0 001.15-.19L12 10.51a1 1 0 00-.29-1.62L6.5 6.54l.9-.9 6.48 2.16a1 1 0 001-.24l3.24-3.24a1.069 1.069 0 011.53 0 .999.999 0 01.32.76 1.06 1.06 0 01-.29.77z" class="Vector"/>
  </g>
</svg>
